<svg viewBox="0 0 40 40" xmlns="http://www.w3.org/2000/svg" xmlns:xlink="http://www.w3.org/1999/xlink" width="40.000000" height="40.000000" fill="none" customFrame="#000000">
	<g id="ic/checkstatus">
		<rect id="bound" width="40.000000" height="40.000000" x="0.000000" y="0.000000" />
		<rect id="back" width="40.000000" height="40.000000" x="0.000000" y="0.000000" rx="20.000000" fill="rgb(255,62.3506,120.733)" />
		<path id="icon" d="M12 28.5L12 11C12 10.4477 12.4477 10 13 10L27 10C27.5523 10 28 10.4477 28 11L28 28.5C27.1716 28.5 26.5001 29.1715 26.5 29.9999L25.5 29.9999C25.4999 29.1715 24.8284 28.5 24 28.5C23.1716 28.5 22.5001 29.1715 22.5 29.9999L21.5 29.9999C21.4999 29.1715 20.8284 28.5 20 28.5C19.1716 28.5 18.5001 29.1715 18.5 29.9999L17.5 29.9999C17.4999 29.1715 16.8284 28.5 16 28.5C15.1716 28.5 14.5001 29.1715 14.5 29.9999L13.5 29.9999C13.4999 29.1715 12.8284 28.5 12 28.5ZM21.4164 21.7884C20.5536 22.3444 19.4704 22.5936 18.3297 22.3827C16.5275 22.0472 15.0896 20.5327 14.8595 18.7114C14.4952 15.8261 16.9493 13.4201 19.8538 13.8802C21.656 14.1678 23.1035 15.644 23.4007 17.4365C23.5828 18.5485 23.324 19.5741 22.7872 20.4273L24.8961 22.5265C25.2699 22.9004 25.2699 23.5138 24.8961 23.8877C24.5126 24.2711 23.8991 24.2711 23.5253 23.8973L21.4164 21.7884ZM16.7059 18.0588C16.7059 16.76 17.76 15.7059 19.0588 15.7059C20.3576 15.7059 21.4118 16.76 21.4118 18.0588C21.4118 19.3576 20.3576 20.4118 19.0588 20.4118C17.76 20.4118 16.7059 19.3576 16.7059 18.0588Z" fill="rgb(255,255,255)" fill-rule="evenodd" />
	</g>
</svg>
